<svg width="112" height="21" viewBox="0 0 112 21" fill="none" xmlns="http://www.w3.org/2000/svg">
<path d="M17.0327 0V20.3636H13.3139L4.45455 7.54688H4.3054V20.3636H0V0H3.77841L12.5682 12.8068H12.7472V0H17.0327Z" fill="#263238"/>
<path d="M27.4705 20.6619C25.8995 20.6619 24.5472 20.3438 23.4137 19.7074C22.2868 19.0644 21.4184 18.1563 20.8086 16.983C20.1987 15.803 19.8938 14.4077 19.8938 12.7969C19.8938 11.2259 20.1987 9.84706 20.8086 8.66051C21.4184 7.47396 22.2769 6.54924 23.3839 5.88636C24.4975 5.22348 25.8034 4.89205 27.3015 4.89205C28.3091 4.89205 29.247 5.05445 30.1154 5.37926C30.9904 5.69744 31.7527 6.17803 32.4023 6.82102C33.0586 7.46402 33.569 8.27273 33.9336 9.24716C34.2982 10.215 34.4805 11.3485 34.4805 12.6477V13.8111H21.5842V11.1861H30.4933C30.4933 10.5762 30.3607 10.036 30.0955 9.56534C29.8304 9.0947 29.4625 8.7268 28.9918 8.46165C28.5278 8.18987 27.9876 8.05398 27.3711 8.05398C26.7281 8.05398 26.158 8.20312 25.6609 8.50142C25.1703 8.79309 24.7859 9.1875 24.5075 9.68466C24.229 10.1752 24.0865 10.7221 24.0799 11.3253V13.821C24.0799 14.5767 24.2191 15.2296 24.4975 15.7798C24.7826 16.33 25.1836 16.7543 25.7006 17.0526C26.2177 17.3509 26.8308 17.5 27.5401 17.5C28.0108 17.5 28.4416 17.4337 28.8327 17.3011C29.2238 17.1686 29.5586 16.9697 29.837 16.7045C30.1154 16.4394 30.3275 16.1146 30.4734 15.7301L34.391 15.9886C34.1921 16.9299 33.7844 17.7519 33.168 18.4545C32.5581 19.1506 31.7693 19.6941 30.8015 20.0852C29.8403 20.4697 28.73 20.6619 27.4705 20.6619Z" fill="#263238"/>
<path d="M40.511 5.09091L43.315 10.4304L46.1886 5.09091H50.5337L46.109 12.7273L50.6531 20.3636H46.3278L43.315 15.0838L40.3519 20.3636H35.9769L40.511 12.7273L36.136 5.09091H40.511Z" fill="#263238"/>
<path d="M59.4031 20.6619C57.8387 20.6619 56.493 20.3305 55.3661 19.6676C54.2459 18.9981 53.3841 18.0701 52.7809 16.8835C52.1843 15.697 51.886 14.3314 51.886 12.7869C51.886 11.2225 52.1876 9.85038 52.7908 8.67045C53.4007 7.4839 54.2657 6.55919 55.386 5.89631C56.5063 5.2268 57.8387 4.89205 59.3832 4.89205C60.7156 4.89205 61.8822 5.134 62.8832 5.6179C63.8841 6.1018 64.6762 6.78125 65.2596 7.65625C65.8429 8.53125 66.1644 9.55871 66.2241 10.7386H62.2269C62.1142 9.97633 61.8159 9.36316 61.332 8.89915C60.8548 8.4285 60.2283 8.19318 59.4528 8.19318C58.7965 8.19318 58.2231 8.37216 57.7326 8.73011C57.2487 9.08144 56.8709 9.59517 56.5991 10.2713C56.3273 10.9474 56.1914 11.7661 56.1914 12.7273C56.1914 13.7017 56.324 14.5303 56.5891 15.2131C56.8609 15.8958 57.2421 16.4162 57.7326 16.7741C58.2231 17.1321 58.7965 17.3111 59.4528 17.3111C59.9367 17.3111 60.3709 17.2116 60.7553 17.0128C61.1464 16.8139 61.4679 16.5256 61.7198 16.1477C61.9783 15.7633 62.1474 15.3026 62.2269 14.7656H66.2241C66.1578 15.9323 65.8396 16.9598 65.2695 17.848C64.7061 18.7296 63.9272 19.419 62.9329 19.9162C61.9386 20.4134 60.762 20.6619 59.4031 20.6619Z" fill="#263238"/>
<path d="M75.8963 20.6619C74.3253 20.6619 72.973 20.3438 71.8395 19.7074C70.7126 19.0644 69.8442 18.1563 69.2344 16.983C68.6245 15.803 68.3196 14.4077 68.3196 12.7969C68.3196 11.2259 68.6245 9.84706 69.2344 8.66051C69.8442 7.47396 70.7026 6.54924 71.8097 5.88636C72.9233 5.22348 74.2292 4.89205 75.7273 4.89205C76.7348 4.89205 77.6728 5.05445 78.5412 5.37926C79.4162 5.69744 80.1785 6.17803 80.8281 6.82102C81.4844 7.46402 81.9948 8.27273 82.3594 9.24716C82.724 10.215 82.9062 11.3485 82.9062 12.6477V13.8111H70.0099V11.1861H78.919C78.919 10.5762 78.7865 10.036 78.5213 9.56534C78.2561 9.0947 77.8883 8.7268 77.4176 8.46165C76.9536 8.18987 76.4134 8.05398 75.7969 8.05398C75.1539 8.05398 74.5838 8.20312 74.0866 8.50142C73.5961 8.79309 73.2116 9.1875 72.9332 9.68466C72.6548 10.1752 72.5123 10.7221 72.5057 11.3253V13.821C72.5057 14.5767 72.6449 15.2296 72.9233 15.7798C73.2083 16.33 73.6094 16.7543 74.1264 17.0526C74.6435 17.3509 75.2566 17.5 75.9659 17.5C76.4365 17.5 76.8674 17.4337 77.2585 17.3011C77.6496 17.1686 77.9844 16.9697 78.2628 16.7045C78.5412 16.4394 78.7533 16.1146 78.8991 15.7301L82.8168 15.9886C82.6179 16.9299 82.2102 17.7519 81.5938 18.4545C80.9839 19.1506 80.1951 19.6941 79.2273 20.0852C78.2661 20.4697 77.1558 20.6619 75.8963 20.6619Z" fill="#263238"/>
<path d="M89.9062 11.5341V20.3636H85.6704V5.09091H89.7074V7.78551H89.8864C90.2244 6.89725 90.7912 6.1946 91.5866 5.67756C92.3821 5.15388 93.3466 4.89205 94.4801 4.89205C95.5407 4.89205 96.4654 5.12405 97.2543 5.58807C98.0431 6.05208 98.6562 6.71496 99.0938 7.5767C99.5312 8.43182 99.75 9.45265 99.75 10.6392V20.3636H95.5142V11.3949C95.5208 10.4602 95.2822 9.73106 94.7983 9.20739C94.3144 8.67708 93.6482 8.41193 92.7997 8.41193C92.2296 8.41193 91.7258 8.53456 91.2883 8.77983C90.8575 9.02509 90.5194 9.38305 90.2741 9.85369C90.0355 10.3177 89.9129 10.8778 89.9062 11.5341Z" fill="#263238"/>
<path d="M111.212 5.09091V8.27273H102.015V5.09091H111.212ZM104.103 1.43182H108.338V15.6705C108.338 16.0616 108.398 16.3665 108.517 16.5852C108.637 16.7973 108.802 16.9465 109.015 17.0327C109.233 17.1188 109.485 17.1619 109.77 17.1619C109.969 17.1619 110.168 17.1454 110.367 17.1122C110.566 17.0724 110.718 17.0426 110.824 17.0227L111.49 20.1747C111.278 20.241 110.98 20.3172 110.596 20.4034C110.211 20.4962 109.744 20.5526 109.194 20.5724C108.173 20.6122 107.278 20.4763 106.509 20.1648C105.747 19.8532 105.153 19.3693 104.729 18.7131C104.305 18.0568 104.096 17.2282 104.103 16.2273V1.43182Z" fill="#263238"/>
</svg>
