<svg width="138" height="26" viewBox="0 0 138 26" fill="none" xmlns="http://www.w3.org/2000/svg">
<path d="M21.0579 0V25.176H16.4603L5.50726 9.33037H5.32286V25.176H0V0H4.67133L15.5383 15.8334H15.7596V0H21.0579Z" fill="white"/>
<path d="M33.9624 25.5448C32.0201 25.5448 30.3483 25.1514 28.9469 24.3647C27.5537 23.5697 26.4801 22.447 25.7261 20.9964C24.9722 19.5376 24.5952 17.8125 24.5952 15.8211C24.5952 13.8788 24.9722 12.1741 25.7261 10.7072C26.4801 9.24022 27.5414 8.09698 28.91 7.27744C30.2868 6.45791 31.9013 6.04815 33.7535 6.04815C34.9991 6.04815 36.1588 6.24893 37.2324 6.6505C38.3142 7.04388 39.2566 7.63804 40.0597 8.43299C40.8711 9.22793 41.5021 10.2278 41.9529 11.4325C42.4036 12.629 42.629 14.0304 42.629 15.6367V17.075H26.685V13.8296H37.6995C37.6995 13.0756 37.5356 12.4077 37.2078 11.8258C36.88 11.244 36.4251 10.7891 35.8433 10.4613C35.2696 10.1253 34.6017 9.95732 33.8395 9.95732C33.0446 9.95732 32.3398 10.1417 31.7251 10.5105C31.1187 10.8711 30.6433 11.3587 30.2991 11.9734C29.9549 12.5798 29.7787 13.2559 29.7705 14.0017V17.0872C29.7705 18.0215 29.9426 18.8287 30.2868 19.509C30.6392 20.1892 31.135 20.7137 31.7743 21.0825C32.4135 21.4513 33.1716 21.6356 34.0485 21.6356C34.6304 21.6356 35.163 21.5537 35.6466 21.3898C36.1301 21.2259 36.544 20.98 36.8882 20.6522C37.2324 20.3244 37.4946 19.9228 37.6749 19.4475L42.5183 19.7671C42.2725 20.9308 41.7685 21.9471 41.0063 22.8158C40.2523 23.6763 39.2771 24.3483 38.0806 24.8318C36.8923 25.3071 35.5195 25.5448 33.9624 25.5448Z" fill="white"/>
<path d="M50.0847 6.29401L53.5513 12.8953L57.104 6.29401H62.476L57.0056 15.735L62.6235 25.176H57.2761L53.5513 18.6485L49.888 25.176H44.4791L50.0847 15.735L44.6758 6.29401H50.0847Z" fill="white"/>
<path d="M73.4413 25.5448C71.5072 25.5448 69.8436 25.135 68.4504 24.3155C67.0654 23.4878 66 22.3404 65.2542 20.8735C64.5166 19.4065 64.1479 17.7183 64.1479 15.8088C64.1479 13.8747 64.5207 12.1782 65.2665 10.7195C66.0205 9.25252 67.09 8.10927 68.475 7.28974C69.86 6.46201 71.5072 6.04815 73.4168 6.04815C75.064 6.04815 76.5064 6.34728 77.7439 6.94553C78.9814 7.54379 79.9607 8.38381 80.6819 9.4656C81.4031 10.5474 81.8006 11.8177 81.8743 13.2764H76.9325C76.7932 12.334 76.4244 11.5759 75.8262 11.0022C75.2361 10.4204 74.4617 10.1294 73.5028 10.1294C72.6915 10.1294 71.9826 10.3507 71.3761 10.7932C70.7779 11.2276 70.3107 11.8627 69.9747 12.6987C69.6387 13.5346 69.4707 14.5467 69.4707 15.735C69.4707 16.9397 69.6346 17.9641 69.9624 18.8083C70.2984 19.6524 70.7697 20.2957 71.3761 20.7383C71.9826 21.1808 72.6915 21.4021 73.5028 21.4021C74.1011 21.4021 74.6379 21.2791 75.1132 21.0333C75.5967 20.7874 75.9942 20.4309 76.3056 19.9638C76.6252 19.4885 76.8342 18.9189 76.9325 18.2551H81.8743C81.7924 19.6975 81.399 20.9677 80.6942 22.0659C79.9976 23.1559 79.0346 24.0082 77.8053 24.6228C76.576 25.2375 75.1214 25.5448 73.4413 25.5448Z" fill="white"/>
<path d="M93.8323 25.5448C91.89 25.5448 90.2182 25.1514 88.8168 24.3647C87.4236 23.5697 86.35 22.447 85.596 20.9964C84.8421 19.5376 84.4651 17.8125 84.4651 15.8211C84.4651 13.8788 84.8421 12.1741 85.596 10.7072C86.35 9.24022 87.4113 8.09698 88.7799 7.27744C90.1567 6.45791 91.7712 6.04815 93.6233 6.04815C94.869 6.04815 96.0287 6.24893 97.1022 6.6505C98.184 7.04388 99.1265 7.63804 99.9296 8.43299C100.741 9.22793 101.372 10.2278 101.823 11.4325C102.274 12.629 102.499 14.0304 102.499 15.6367V17.075H86.5549V13.8296H97.5694C97.5694 13.0756 97.4055 12.4077 97.0777 11.8258C96.7498 11.244 96.295 10.7891 95.7131 10.4613C95.1395 10.1253 94.4716 9.95732 93.7094 9.95732C92.9144 9.95732 92.2096 10.1417 91.595 10.5105C90.9885 10.8711 90.5132 11.3587 90.169 11.9734C89.8248 12.5798 89.6486 13.2559 89.6404 14.0017V17.0872C89.6404 18.0215 89.8125 18.8287 90.1567 19.509C90.5091 20.1892 91.0049 20.7137 91.6442 21.0825C92.2834 21.4513 93.0415 21.6356 93.9184 21.6356C94.5002 21.6356 95.0329 21.5537 95.5165 21.3898C96 21.2259 96.4138 20.98 96.758 20.6522C97.1022 20.3244 97.3645 19.9228 97.5448 19.4475L102.388 19.7671C102.142 20.9308 101.638 21.9471 100.876 22.8158C100.122 23.6763 99.147 24.3483 97.9505 24.8318C96.7621 25.3071 95.3894 25.5448 93.8323 25.5448Z" fill="white"/>
<path d="M111.153 14.2599V25.176H105.916V6.29401H110.907V9.6254H111.129C111.547 8.52723 112.247 7.65853 113.231 7.01929C114.214 6.37186 115.407 6.04815 116.808 6.04815C118.119 6.04815 119.262 6.33498 120.238 6.90866C121.213 7.48233 121.971 8.30186 122.512 9.36725C123.053 10.4244 123.323 11.6865 123.323 13.1535V25.176H118.086V14.0878C118.095 12.9322 117.8 12.0307 117.201 11.3833C116.603 10.7277 115.779 10.3999 114.73 10.3999C114.026 10.3999 113.403 10.5515 112.862 10.8547C112.329 11.1579 111.911 11.6005 111.608 12.1823C111.313 12.756 111.161 13.4485 111.153 14.2599Z" fill="white"/>
<path d="M137.494 6.29401V10.2278H126.123V6.29401H137.494ZM128.704 1.77019H133.941V19.3737C133.941 19.8573 134.015 20.2342 134.163 20.5047C134.31 20.7669 134.515 20.9513 134.777 21.0579C135.048 21.1644 135.359 21.2177 135.711 21.2177C135.957 21.2177 136.203 21.1972 136.449 21.1562C136.695 21.107 136.883 21.0702 137.014 21.0456L137.838 24.9425C137.576 25.0244 137.207 25.1187 136.732 25.2252C136.256 25.3399 135.679 25.4096 134.998 25.4342C133.736 25.4834 132.63 25.3153 131.679 24.9302C130.737 24.545 130.003 23.9467 129.479 23.1354C128.954 22.3241 128.696 21.2996 128.704 20.0621V1.77019Z" fill="white"/>
</svg>
